<!DOCTYPE svg PUBLIC "-//W3C//DTD SVG 1.1//EN" "http://www.w3.org/Graphics/SVG/1.1/DTD/svg11.dtd">
<svg xmlns="http://www.w3.org/2000/svg" xmlns:xlink="http://www.w3.org/1999/xlink" xmlns:jfreesvg="http://www.jfree.org/jfreesvg/svg" width="600" height="400" text-rendering="auto" shape-rendering="auto">
<defs><clipPath id="_74938805606300clip-0"><path d="M 0 0 L 600 0 L 600 400 L 0 400 L 0 0 Z "/></clipPath>
<clipPath id="_74938805606300clip-1"><path d="M 212.27 171.73 L 212.27 771.73 L -187.73 771.73 L -187.73 171.73 L 212.27 171.73 Z "/></clipPath>
<clipPath id="_74938805606300clip-2"><path d="M 68 36 L 68 348 L 587 348 L 587 36 Z "/></clipPath>
</defs>
<rect x="0" y="0" width="600" height="400" style="fill: rgb(255,255,255); fill-opacity: 1.0" transform="matrix(1,0,0,1,0,0)" clip-path="url(#_74938805606300clip-0)"/><g transform="matrix(1,0,0,1,0,0)"><text x="70.68" y="21.01" style="fill: rgb(0,0,0); fill-opacity: 1.0; font-family: Tahoma; font-size: 20px; font-weight: bold;" clip-path="url(#_74938805606300clip-0)">Изменение стоимости книги &quot;The test book&quot;</text></g><rect x="252.19" y="376.52" width="95.62" height="22.48" style="fill: rgb(255,255,255); fill-opacity: 1.0" transform="matrix(1,0,0,1,0,0)" clip-path="url(#_74938805606300clip-0)"/><line x1="252.69" y1="377.02" x2="347.31" y2="377.02" style="stroke-width: 1.0;stroke: rgb(0,0,0);stroke-opacity: 1.0;stroke-linecap: square;shape-rendering:crispEdges;" transform="matrix(1,0,0,1,0,0)" clip-path="url(#_74938805606300clip-0)"/><line x1="252.69" y1="398.5" x2="347.31" y2="398.5" style="stroke-width: 1.0;stroke: rgb(0,0,0);stroke-opacity: 1.0;stroke-linecap: square;shape-rendering:crispEdges;" transform="matrix(1,0,0,1,0,0)" clip-path="url(#_74938805606300clip-0)"/><line x1="252.69" y1="398.5" x2="252.69" y2="377.02" style="stroke-width: 1.0;stroke: rgb(0,0,0);stroke-opacity: 1.0;stroke-linecap: square;shape-rendering:crispEdges;" transform="matrix(1,0,0,1,0,0)" clip-path="url(#_74938805606300clip-0)"/><line x1="347.31" y1="398.5" x2="347.31" y2="377.02" style="stroke-width: 1.0;stroke: rgb(0,0,0);stroke-opacity: 1.0;stroke-linecap: square;shape-rendering:crispEdges;" transform="matrix(1,0,0,1,0,0)" clip-path="url(#_74938805606300clip-0)"/><g style="stroke-width: 1.0;stroke: rgb(255,85,85);stroke-opacity: 1.0;stroke-linecap: square;stroke-linejoin: bevel;shape-rendering:geometricPrecision;; fill: none" transform="matrix(1,0,0,1,0,0)" clip-path="url(#_74938805606300clip-0)"><path d="M 256.19 387.76 L 270.19 387.76"/></g><g style="fill: rgb(255,85,85); fill-opacity: 1.0; stroke: none" transform="matrix(1,0,0,1,0,0)" clip-path="url(#_74938805606300clip-0)"><path d="M 260.19 384.76 L 266.19 384.76 L 266.19 390.76 L 260.19 390.76 L 260.19 384.76 Z "/></g><g style="stroke-width: 1.0;stroke: rgb(255,85,85);stroke-opacity: 1.0;stroke-linecap: square;shape-rendering:geometricPrecision;; fill: none" transform="matrix(1,0,0,1,0,0)" clip-path="url(#_74938805606300clip-0)"><path d="M 260.19 384.76 L 266.19 384.76 L 266.19 390.76 L 260.19 390.76 L 260.19 384.76 Z "/></g><g transform="matrix(1,0,0,1,0,0)"><text x="274.19" y="392.52" style="fill: rgb(64,64,64); fill-opacity: 1.0; font-family: Tahoma; font-size: 12px;" clip-path="url(#_74938805606300clip-0)">Автор: name</text></g><rect x="68" y="36" width="519" height="312" style="fill: rgb(0,255,255); fill-opacity: 1.0" transform="matrix(1,0,0,1,0,0)" clip-path="url(#_74938805606300clip-0)"/><line x1="68" y1="353" x2="587" y2="353" style="stroke-width: 0.5;stroke: rgb(128,128,128);stroke-opacity: 1.0;stroke-linecap: square;shape-rendering:crispEdges;" transform="matrix(1,0,0,1,0,0)" clip-path="url(#_74938805606300clip-0)"/><g transform="matrix(1,0,0,1,0,0)"><text x="48.14" y="369.01" style="fill: rgb(64,64,64); fill-opacity: 1.0; font-family: Tahoma; font-size: 12px;" clip-path="url(#_74938805606300clip-0)">10.03.2022</text></g><line x1="77.98" y1="355" x2="77.98" y2="353" style="stroke-width: 0.5;stroke: rgb(128,128,128);stroke-opacity: 1.0;stroke-linecap: square;shape-rendering:crispEdges;" transform="matrix(1,0,0,1,0,0)" clip-path="url(#_74938805606300clip-0)"/><g transform="matrix(1,0,0,1,0,0)"><text x="119.44" y="369.01" style="fill: rgb(64,64,64); fill-opacity: 1.0; font-family: Tahoma; font-size: 12px;" clip-path="url(#_74938805606300clip-0)">11.03.2022</text></g><line x1="149.27" y1="355" x2="149.27" y2="353" style="stroke-width: 0.5;stroke: rgb(128,128,128);stroke-opacity: 1.0;stroke-linecap: square;shape-rendering:crispEdges;" transform="matrix(1,0,0,1,0,0)" clip-path="url(#_74938805606300clip-0)"/><g transform="matrix(1,0,0,1,0,0)"><text x="190.73" y="369.01" style="fill: rgb(64,64,64); fill-opacity: 1.0; font-family: Tahoma; font-size: 12px;" clip-path="url(#_74938805606300clip-0)">12.03.2022</text></g><line x1="220.56" y1="355" x2="220.56" y2="353" style="stroke-width: 0.5;stroke: rgb(128,128,128);stroke-opacity: 1.0;stroke-linecap: square;shape-rendering:crispEdges;" transform="matrix(1,0,0,1,0,0)" clip-path="url(#_74938805606300clip-0)"/><g transform="matrix(1,0,0,1,0,0)"><text x="262.02" y="369.01" style="fill: rgb(64,64,64); fill-opacity: 1.0; font-family: Tahoma; font-size: 12px;" clip-path="url(#_74938805606300clip-0)">13.03.2022</text></g><line x1="291.85" y1="355" x2="291.85" y2="353" style="stroke-width: 0.5;stroke: rgb(128,128,128);stroke-opacity: 1.0;stroke-linecap: square;shape-rendering:crispEdges;" transform="matrix(1,0,0,1,0,0)" clip-path="url(#_74938805606300clip-0)"/><g transform="matrix(1,0,0,1,0,0)"><text x="333.31" y="369.01" style="fill: rgb(64,64,64); fill-opacity: 1.0; font-family: Tahoma; font-size: 12px;" clip-path="url(#_74938805606300clip-0)">14.03.2022</text></g><line x1="363.15" y1="355" x2="363.15" y2="353" style="stroke-width: 0.5;stroke: rgb(128,128,128);stroke-opacity: 1.0;stroke-linecap: square;shape-rendering:crispEdges;" transform="matrix(1,0,0,1,0,0)" clip-path="url(#_74938805606300clip-0)"/><g transform="matrix(1,0,0,1,0,0)"><text x="404.6" y="369.01" style="fill: rgb(64,64,64); fill-opacity: 1.0; font-family: Tahoma; font-size: 12px;" clip-path="url(#_74938805606300clip-0)">15.03.2022</text></g><line x1="434.44" y1="355" x2="434.44" y2="353" style="stroke-width: 0.5;stroke: rgb(128,128,128);stroke-opacity: 1.0;stroke-linecap: square;shape-rendering:crispEdges;" transform="matrix(1,0,0,1,0,0)" clip-path="url(#_74938805606300clip-0)"/><g transform="matrix(1,0,0,1,0,0)"><text x="475.89" y="369.01" style="fill: rgb(64,64,64); fill-opacity: 1.0; font-family: Tahoma; font-size: 12px;" clip-path="url(#_74938805606300clip-0)">16.03.2022</text></g><line x1="505.73" y1="355" x2="505.73" y2="353" style="stroke-width: 0.5;stroke: rgb(128,128,128);stroke-opacity: 1.0;stroke-linecap: square;shape-rendering:crispEdges;" transform="matrix(1,0,0,1,0,0)" clip-path="url(#_74938805606300clip-0)"/><g transform="matrix(1,0,0,1,0,0)"><text x="547.18" y="369.01" style="fill: rgb(64,64,64); fill-opacity: 1.0; font-family: Tahoma; font-size: 12px;" clip-path="url(#_74938805606300clip-0)">17.03.2022</text></g><line x1="577.02" y1="355" x2="577.02" y2="353" style="stroke-width: 0.5;stroke: rgb(128,128,128);stroke-opacity: 1.0;stroke-linecap: square;shape-rendering:crispEdges;" transform="matrix(1,0,0,1,0,0)" clip-path="url(#_74938805606300clip-0)"/><line x1="63" y1="36" x2="63" y2="348" style="stroke-width: 0.5;stroke: rgb(128,128,128);stroke-opacity: 1.0;stroke-linecap: square;shape-rendering:crispEdges;" transform="matrix(1,0,0,1,0,0)" clip-path="url(#_74938805606300clip-0)"/><g transform="matrix(1,0,0,1,0,0)"><text x="33.71" y="347.92" style="fill: rgb(64,64,64); fill-opacity: 1.0; font-family: Tahoma; font-size: 12px;" clip-path="url(#_74938805606300clip-0)">2,55</text></g><line x1="61" y1="343.16" x2="63" y2="343.16" style="stroke-width: 0.5;stroke: rgb(128,128,128);stroke-opacity: 1.0;stroke-linecap: square;shape-rendering:crispEdges;" transform="matrix(1,0,0,1,0,0)" clip-path="url(#_74938805606300clip-0)"/><g transform="matrix(1,0,0,1,0,0)"><text x="33.71" y="325.03" style="fill: rgb(64,64,64); fill-opacity: 1.0; font-family: Tahoma; font-size: 12px;" clip-path="url(#_74938805606300clip-0)">2,60</text></g><line x1="61" y1="320.27" x2="63" y2="320.27" style="stroke-width: 0.5;stroke: rgb(128,128,128);stroke-opacity: 1.0;stroke-linecap: square;shape-rendering:crispEdges;" transform="matrix(1,0,0,1,0,0)" clip-path="url(#_74938805606300clip-0)"/><g transform="matrix(1,0,0,1,0,0)"><text x="33.71" y="302.14" style="fill: rgb(64,64,64); fill-opacity: 1.0; font-family: Tahoma; font-size: 12px;" clip-path="url(#_74938805606300clip-0)">2,65</text></g><line x1="61" y1="297.37" x2="63" y2="297.37" style="stroke-width: 0.5;stroke: rgb(128,128,128);stroke-opacity: 1.0;stroke-linecap: square;shape-rendering:crispEdges;" transform="matrix(1,0,0,1,0,0)" clip-path="url(#_74938805606300clip-0)"/><g transform="matrix(1,0,0,1,0,0)"><text x="33.71" y="279.24" style="fill: rgb(64,64,64); fill-opacity: 1.0; font-family: Tahoma; font-size: 12px;" clip-path="url(#_74938805606300clip-0)">2,70</text></g><line x1="61" y1="274.48" x2="63" y2="274.48" style="stroke-width: 0.5;stroke: rgb(128,128,128);stroke-opacity: 1.0;stroke-linecap: square;shape-rendering:crispEdges;" transform="matrix(1,0,0,1,0,0)" clip-path="url(#_74938805606300clip-0)"/><g transform="matrix(1,0,0,1,0,0)"><text x="33.71" y="256.35" style="fill: rgb(64,64,64); fill-opacity: 1.0; font-family: Tahoma; font-size: 12px;" clip-path="url(#_74938805606300clip-0)">2,75</text></g><line x1="61" y1="251.59" x2="63" y2="251.59" style="stroke-width: 0.5;stroke: rgb(128,128,128);stroke-opacity: 1.0;stroke-linecap: square;shape-rendering:crispEdges;" transform="matrix(1,0,0,1,0,0)" clip-path="url(#_74938805606300clip-0)"/><g transform="matrix(1,0,0,1,0,0)"><text x="33.71" y="233.46" style="fill: rgb(64,64,64); fill-opacity: 1.0; font-family: Tahoma; font-size: 12px;" clip-path="url(#_74938805606300clip-0)">2,80</text></g><line x1="61" y1="228.7" x2="63" y2="228.7" style="stroke-width: 0.5;stroke: rgb(128,128,128);stroke-opacity: 1.0;stroke-linecap: square;shape-rendering:crispEdges;" transform="matrix(1,0,0,1,0,0)" clip-path="url(#_74938805606300clip-0)"/><g transform="matrix(1,0,0,1,0,0)"><text x="33.71" y="210.57" style="fill: rgb(64,64,64); fill-opacity: 1.0; font-family: Tahoma; font-size: 12px;" clip-path="url(#_74938805606300clip-0)">2,85</text></g><line x1="61" y1="205.8" x2="63" y2="205.8" style="stroke-width: 0.5;stroke: rgb(128,128,128);stroke-opacity: 1.0;stroke-linecap: square;shape-rendering:crispEdges;" transform="matrix(1,0,0,1,0,0)" clip-path="url(#_74938805606300clip-0)"/><g transform="matrix(1,0,0,1,0,0)"><text x="33.71" y="187.68" style="fill: rgb(64,64,64); fill-opacity: 1.0; font-family: Tahoma; font-size: 12px;" clip-path="url(#_74938805606300clip-0)">2,90</text></g><line x1="61" y1="182.91" x2="63" y2="182.91" style="stroke-width: 0.5;stroke: rgb(128,128,128);stroke-opacity: 1.0;stroke-linecap: square;shape-rendering:crispEdges;" transform="matrix(1,0,0,1,0,0)" clip-path="url(#_74938805606300clip-0)"/><g transform="matrix(1,0,0,1,0,0)"><text x="33.71" y="164.78" style="fill: rgb(64,64,64); fill-opacity: 1.0; font-family: Tahoma; font-size: 12px;" clip-path="url(#_74938805606300clip-0)">2,95</text></g><line x1="61" y1="160.02" x2="63" y2="160.02" style="stroke-width: 0.5;stroke: rgb(128,128,128);stroke-opacity: 1.0;stroke-linecap: square;shape-rendering:crispEdges;" transform="matrix(1,0,0,1,0,0)" clip-path="url(#_74938805606300clip-0)"/><g transform="matrix(1,0,0,1,0,0)"><text x="33.71" y="141.89" style="fill: rgb(64,64,64); fill-opacity: 1.0; font-family: Tahoma; font-size: 12px;" clip-path="url(#_74938805606300clip-0)">3,00</text></g><line x1="61" y1="137.13" x2="63" y2="137.13" style="stroke-width: 0.5;stroke: rgb(128,128,128);stroke-opacity: 1.0;stroke-linecap: square;shape-rendering:crispEdges;" transform="matrix(1,0,0,1,0,0)" clip-path="url(#_74938805606300clip-0)"/><g transform="matrix(1,0,0,1,0,0)"><text x="33.71" y="119" style="fill: rgb(64,64,64); fill-opacity: 1.0; font-family: Tahoma; font-size: 12px;" clip-path="url(#_74938805606300clip-0)">3,05</text></g><line x1="61" y1="114.23" x2="63" y2="114.23" style="stroke-width: 0.5;stroke: rgb(128,128,128);stroke-opacity: 1.0;stroke-linecap: square;shape-rendering:crispEdges;" transform="matrix(1,0,0,1,0,0)" clip-path="url(#_74938805606300clip-0)"/><g transform="matrix(1,0,0,1,0,0)"><text x="33.71" y="96.11" style="fill: rgb(64,64,64); fill-opacity: 1.0; font-family: Tahoma; font-size: 12px;" clip-path="url(#_74938805606300clip-0)">3,10</text></g><line x1="61" y1="91.34" x2="63" y2="91.34" style="stroke-width: 0.5;stroke: rgb(128,128,128);stroke-opacity: 1.0;stroke-linecap: square;shape-rendering:crispEdges;" transform="matrix(1,0,0,1,0,0)" clip-path="url(#_74938805606300clip-0)"/><g transform="matrix(1,0,0,1,0,0)"><text x="33.71" y="73.21" style="fill: rgb(64,64,64); fill-opacity: 1.0; font-family: Tahoma; font-size: 12px;" clip-path="url(#_74938805606300clip-0)">3,15</text></g><line x1="61" y1="68.45" x2="63" y2="68.45" style="stroke-width: 0.5;stroke: rgb(128,128,128);stroke-opacity: 1.0;stroke-linecap: square;shape-rendering:crispEdges;" transform="matrix(1,0,0,1,0,0)" clip-path="url(#_74938805606300clip-0)"/><g transform="matrix(1,0,0,1,0,0)"><text x="33.71" y="50.32" style="fill: rgb(64,64,64); fill-opacity: 1.0; font-family: Tahoma; font-size: 12px;" clip-path="url(#_74938805606300clip-0)">3,20</text></g><line x1="61" y1="45.56" x2="63" y2="45.56" style="stroke-width: 0.5;stroke: rgb(128,128,128);stroke-opacity: 1.0;stroke-linecap: square;shape-rendering:crispEdges;" transform="matrix(1,0,0,1,0,0)" clip-path="url(#_74938805606300clip-0)"/><g transform="matrix(0,-1,1,0,-171.734375,212.265625)"><text x="-41.17" y="197.56" style="fill: rgb(64,64,64); fill-opacity: 1.0; font-family: Tahoma; font-size: 14px; font-weight: bold;" clip-path="url(#_74938805606300clip-1)">Стоимость в USD</text></g><line x1="77.98" y1="36" x2="77.98" y2="348" style="stroke-width: 0.5;stroke: rgb(192,192,192);stroke-opacity: 1.0;stroke-linejoin: bevel;stroke-dasharray: 2.0, 2.0;shape-rendering:crispEdges;" transform="matrix(1,0,0,1,0,0)" clip-path="url(#_74938805606300clip-2)"/><line x1="149.27" y1="36" x2="149.27" y2="348" style="stroke-width: 0.5;stroke: rgb(192,192,192);stroke-opacity: 1.0;stroke-linejoin: bevel;stroke-dasharray: 2.0, 2.0;shape-rendering:crispEdges;" transform="matrix(1,0,0,1,0,0)" clip-path="url(#_74938805606300clip-2)"/><line x1="220.56" y1="36" x2="220.56" y2="348" style="stroke-width: 0.5;stroke: rgb(192,192,192);stroke-opacity: 1.0;stroke-linejoin: bevel;stroke-dasharray: 2.0, 2.0;shape-rendering:crispEdges;" transform="matrix(1,0,0,1,0,0)" clip-path="url(#_74938805606300clip-2)"/><line x1="291.85" y1="36" x2="291.85" y2="348" style="stroke-width: 0.5;stroke: rgb(192,192,192);stroke-opacity: 1.0;stroke-linejoin: bevel;stroke-dasharray: 2.0, 2.0;shape-rendering:crispEdges;" transform="matrix(1,0,0,1,0,0)" clip-path="url(#_74938805606300clip-2)"/><line x1="363.15" y1="36" x2="363.15" y2="348" style="stroke-width: 0.5;stroke: rgb(192,192,192);stroke-opacity: 1.0;stroke-linejoin: bevel;stroke-dasharray: 2.0, 2.0;shape-rendering:crispEdges;" transform="matrix(1,0,0,1,0,0)" clip-path="url(#_74938805606300clip-2)"/><line x1="434.44" y1="36" x2="434.44" y2="348" style="stroke-width: 0.5;stroke: rgb(192,192,192);stroke-opacity: 1.0;stroke-linejoin: bevel;stroke-dasharray: 2.0, 2.0;shape-rendering:crispEdges;" transform="matrix(1,0,0,1,0,0)" clip-path="url(#_74938805606300clip-2)"/><line x1="505.73" y1="36" x2="505.73" y2="348" style="stroke-width: 0.5;stroke: rgb(192,192,192);stroke-opacity: 1.0;stroke-linejoin: bevel;stroke-dasharray: 2.0, 2.0;shape-rendering:crispEdges;" transform="matrix(1,0,0,1,0,0)" clip-path="url(#_74938805606300clip-2)"/><line x1="577.02" y1="36" x2="577.02" y2="348" style="stroke-width: 0.5;stroke: rgb(192,192,192);stroke-opacity: 1.0;stroke-linejoin: bevel;stroke-dasharray: 2.0, 2.0;shape-rendering:crispEdges;" transform="matrix(1,0,0,1,0,0)" clip-path="url(#_74938805606300clip-2)"/><line x1="68" y1="343.16" x2="587" y2="343.16" style="stroke-width: 0.5;stroke: rgb(192,192,192);stroke-opacity: 1.0;stroke-linejoin: bevel;stroke-dasharray: 2.0, 2.0;shape-rendering:crispEdges;" transform="matrix(1,0,0,1,0,0)" clip-path="url(#_74938805606300clip-2)"/><line x1="68" y1="320.27" x2="587" y2="320.27" style="stroke-width: 0.5;stroke: rgb(192,192,192);stroke-opacity: 1.0;stroke-linejoin: bevel;stroke-dasharray: 2.0, 2.0;shape-rendering:crispEdges;" transform="matrix(1,0,0,1,0,0)" clip-path="url(#_74938805606300clip-2)"/><line x1="68" y1="297.37" x2="587" y2="297.37" style="stroke-width: 0.5;stroke: rgb(192,192,192);stroke-opacity: 1.0;stroke-linejoin: bevel;stroke-dasharray: 2.0, 2.0;shape-rendering:crispEdges;" transform="matrix(1,0,0,1,0,0)" clip-path="url(#_74938805606300clip-2)"/><line x1="68" y1="274.48" x2="587" y2="274.48" style="stroke-width: 0.5;stroke: rgb(192,192,192);stroke-opacity: 1.0;stroke-linejoin: bevel;stroke-dasharray: 2.0, 2.0;shape-rendering:crispEdges;" transform="matrix(1,0,0,1,0,0)" clip-path="url(#_74938805606300clip-2)"/><line x1="68" y1="251.59" x2="587" y2="251.59" style="stroke-width: 0.5;stroke: rgb(192,192,192);stroke-opacity: 1.0;stroke-linejoin: bevel;stroke-dasharray: 2.0, 2.0;shape-rendering:crispEdges;" transform="matrix(1,0,0,1,0,0)" clip-path="url(#_74938805606300clip-2)"/><line x1="68" y1="228.7" x2="587" y2="228.7" style="stroke-width: 0.5;stroke: rgb(192,192,192);stroke-opacity: 1.0;stroke-linejoin: bevel;stroke-dasharray: 2.0, 2.0;shape-rendering:crispEdges;" transform="matrix(1,0,0,1,0,0)" clip-path="url(#_74938805606300clip-2)"/><line x1="68" y1="205.8" x2="587" y2="205.8" style="stroke-width: 0.5;stroke: rgb(192,192,192);stroke-opacity: 1.0;stroke-linejoin: bevel;stroke-dasharray: 2.0, 2.0;shape-rendering:crispEdges;" transform="matrix(1,0,0,1,0,0)" clip-path="url(#_74938805606300clip-2)"/><line x1="68" y1="182.91" x2="587" y2="182.91" style="stroke-width: 0.5;stroke: rgb(192,192,192);stroke-opacity: 1.0;stroke-linejoin: bevel;stroke-dasharray: 2.0, 2.0;shape-rendering:crispEdges;" transform="matrix(1,0,0,1,0,0)" clip-path="url(#_74938805606300clip-2)"/><line x1="68" y1="160.02" x2="587" y2="160.02" style="stroke-width: 0.5;stroke: rgb(192,192,192);stroke-opacity: 1.0;stroke-linejoin: bevel;stroke-dasharray: 2.0, 2.0;shape-rendering:crispEdges;" transform="matrix(1,0,0,1,0,0)" clip-path="url(#_74938805606300clip-2)"/><line x1="68" y1="137.13" x2="587" y2="137.13" style="stroke-width: 0.5;stroke: rgb(192,192,192);stroke-opacity: 1.0;stroke-linejoin: bevel;stroke-dasharray: 2.0, 2.0;shape-rendering:crispEdges;" transform="matrix(1,0,0,1,0,0)" clip-path="url(#_74938805606300clip-2)"/><line x1="68" y1="114.23" x2="587" y2="114.23" style="stroke-width: 0.5;stroke: rgb(192,192,192);stroke-opacity: 1.0;stroke-linejoin: bevel;stroke-dasharray: 2.0, 2.0;shape-rendering:crispEdges;" transform="matrix(1,0,0,1,0,0)" clip-path="url(#_74938805606300clip-2)"/><line x1="68" y1="91.34" x2="587" y2="91.34" style="stroke-width: 0.5;stroke: rgb(192,192,192);stroke-opacity: 1.0;stroke-linejoin: bevel;stroke-dasharray: 2.0, 2.0;shape-rendering:crispEdges;" transform="matrix(1,0,0,1,0,0)" clip-path="url(#_74938805606300clip-2)"/><line x1="68" y1="68.45" x2="587" y2="68.45" style="stroke-width: 0.5;stroke: rgb(192,192,192);stroke-opacity: 1.0;stroke-linejoin: bevel;stroke-dasharray: 2.0, 2.0;shape-rendering:crispEdges;" transform="matrix(1,0,0,1,0,0)" clip-path="url(#_74938805606300clip-2)"/><line x1="68" y1="45.56" x2="587" y2="45.56" style="stroke-width: 0.5;stroke: rgb(192,192,192);stroke-opacity: 1.0;stroke-linejoin: bevel;stroke-dasharray: 2.0, 2.0;shape-rendering:crispEdges;" transform="matrix(1,0,0,1,0,0)" clip-path="url(#_74938805606300clip-2)"/><g style="stroke-width: 1.0;stroke: rgb(255,85,85);stroke-opacity: 1.0;stroke-linecap: square;stroke-linejoin: bevel;shape-rendering:geometricPrecision;; fill: none" transform="matrix(1,0,0,1,0,0)" clip-path="url(#_74938805606300clip-2)"><path d="M 77.98 332.46 L 149.27 333.82 L 220.56 328.37 L 363.15 50.18 L 434.44 51.77 L 505.73 62.44 L 577.02 58.69"/></g><g style="fill: rgb(255,85,85); fill-opacity: 1.0; stroke: none" transform="matrix(1,0,0,1,0,0)" clip-path="url(#_74938805606300clip-2)"><path d="M 74.98 329.46 L 80.98 329.46 L 80.98 335.46 L 74.98 335.46 L 74.98 329.46 Z "/></g><g style="stroke-width: 1.0;stroke: rgb(255,85,85);stroke-opacity: 1.0;stroke-linecap: square;shape-rendering:geometricPrecision;; fill: none" transform="matrix(1,0,0,1,0,0)" clip-path="url(#_74938805606300clip-2)"><path d="M 74.98 329.46 L 80.98 329.46 L 80.98 335.46 L 74.98 335.46 L 74.98 329.46 Z "/></g><g style="fill: rgb(255,85,85); fill-opacity: 1.0; stroke: none" transform="matrix(1,0,0,1,0,0)" clip-path="url(#_74938805606300clip-2)"><path d="M 146.27 330.82 L 152.27 330.82 L 152.27 336.82 L 146.27 336.82 L 146.27 330.82 Z "/></g><g style="stroke-width: 1.0;stroke: rgb(255,85,85);stroke-opacity: 1.0;stroke-linecap: square;shape-rendering:geometricPrecision;; fill: none" transform="matrix(1,0,0,1,0,0)" clip-path="url(#_74938805606300clip-2)"><path d="M 146.27 330.82 L 152.27 330.82 L 152.27 336.82 L 146.27 336.82 L 146.27 330.82 Z "/></g><g style="fill: rgb(255,85,85); fill-opacity: 1.0; stroke: none" transform="matrix(1,0,0,1,0,0)" clip-path="url(#_74938805606300clip-2)"><path d="M 217.56 325.37 L 223.56 325.37 L 223.56 331.37 L 217.56 331.37 L 217.56 325.37 Z "/></g><g style="stroke-width: 1.0;stroke: rgb(255,85,85);stroke-opacity: 1.0;stroke-linecap: square;shape-rendering:geometricPrecision;; fill: none" transform="matrix(1,0,0,1,0,0)" clip-path="url(#_74938805606300clip-2)"><path d="M 217.56 325.37 L 223.56 325.37 L 223.56 331.37 L 217.56 331.37 L 217.56 325.37 Z "/></g><g style="fill: rgb(255,85,85); fill-opacity: 1.0; stroke: none" transform="matrix(1,0,0,1,0,0)" clip-path="url(#_74938805606300clip-2)"><path d="M 360.15 47.18 L 366.15 47.18 L 366.15 53.18 L 360.15 53.18 L 360.15 47.18 Z "/></g><g style="stroke-width: 1.0;stroke: rgb(255,85,85);stroke-opacity: 1.0;stroke-linecap: square;shape-rendering:geometricPrecision;; fill: none" transform="matrix(1,0,0,1,0,0)" clip-path="url(#_74938805606300clip-2)"><path d="M 360.15 47.18 L 366.15 47.18 L 366.15 53.18 L 360.15 53.18 L 360.15 47.18 Z "/></g><g style="fill: rgb(255,85,85); fill-opacity: 1.0; stroke: none" transform="matrix(1,0,0,1,0,0)" clip-path="url(#_74938805606300clip-2)"><path d="M 431.44 48.77 L 437.44 48.77 L 437.44 54.77 L 431.44 54.77 L 431.44 48.77 Z "/></g><g style="stroke-width: 1.0;stroke: rgb(255,85,85);stroke-opacity: 1.0;stroke-linecap: square;shape-rendering:geometricPrecision;; fill: none" transform="matrix(1,0,0,1,0,0)" clip-path="url(#_74938805606300clip-2)"><path d="M 431.44 48.77 L 437.44 48.77 L 437.44 54.77 L 431.44 54.77 L 431.44 48.77 Z "/></g><g style="fill: rgb(255,85,85); fill-opacity: 1.0; stroke: none" transform="matrix(1,0,0,1,0,0)" clip-path="url(#_74938805606300clip-2)"><path d="M 502.73 59.44 L 508.73 59.44 L 508.73 65.44 L 502.73 65.44 L 502.73 59.44 Z "/></g><g style="stroke-width: 1.0;stroke: rgb(255,85,85);stroke-opacity: 1.0;stroke-linecap: square;shape-rendering:geometricPrecision;; fill: none" transform="matrix(1,0,0,1,0,0)" clip-path="url(#_74938805606300clip-2)"><path d="M 502.73 59.44 L 508.73 59.44 L 508.73 65.44 L 502.73 65.44 L 502.73 59.44 Z "/></g><g style="fill: rgb(255,85,85); fill-opacity: 1.0; stroke: none" transform="matrix(1,0,0,1,0,0)" clip-path="url(#_74938805606300clip-2)"><path d="M 574.02 55.69 L 580.02 55.69 L 580.02 61.69 L 574.02 61.69 L 574.02 55.69 Z "/></g><g style="stroke-width: 1.0;stroke: rgb(255,85,85);stroke-opacity: 1.0;stroke-linecap: square;shape-rendering:geometricPrecision;; fill: none" transform="matrix(1,0,0,1,0,0)" clip-path="url(#_74938805606300clip-2)"><path d="M 574.02 55.69 L 580.02 55.69 L 580.02 61.69 L 574.02 61.69 L 574.02 55.69 Z "/></g><rect x="68" y="36" width="519" height="312" style="stroke-width: 0.5;stroke: rgb(0,0,0);stroke-opacity: 1.0;stroke-linecap: round;stroke-linejoin: round;shape-rendering:crispEdges;; fill: none" transform="matrix(1,0,0,1,0,0)" clip-path="url(#_74938805606300clip-0)"/></svg>
