<!DOCTYPE svg PUBLIC "-//W3C//DTD SVG 1.1//EN" "http://www.w3.org/Graphics/SVG/1.1/DTD/svg11.dtd">
<svg xmlns="http://www.w3.org/2000/svg" xmlns:xlink="http://www.w3.org/1999/xlink" xmlns:jfreesvg="http://www.jfree.org/jfreesvg/svg" width="600" height="400" text-rendering="auto" shape-rendering="auto">
<defs><clipPath id="_281985507131100clip-0"><path d="M 0 0 L 600 0 L 600 400 L 0 400 L 0 0 Z "/></clipPath>
<clipPath id="_281985507131100clip-1"><path d="M 211.45 172.55 L 211.45 772.55 L -188.55 772.55 L -188.55 172.55 L 211.45 172.55 Z "/></clipPath>
<clipPath id="_281985507131100clip-2"><path d="M 57 36 L 57 348 L 587 348 L 587 36 Z "/></clipPath>
</defs>
<rect x="0" y="0" width="600" height="400" style="fill: rgb(255,255,255); fill-opacity: 1.0" transform="matrix(1,0,0,1,0,0)" clip-path="url(#_281985507131100clip-0)"/><g transform="matrix(1,0,0,1,0,0)"><text x="70.68" y="21.01" style="fill: rgb(0,0,0); fill-opacity: 1.0; font-family: Tahoma; font-size: 20px; font-weight: bold;" clip-path="url(#_281985507131100clip-0)">Изменение стоимости книги &quot;The test book&quot;</text></g><rect x="196.91" y="376.52" width="206.19" height="22.48" style="fill: rgb(255,255,255); fill-opacity: 1.0" transform="matrix(1,0,0,1,0,0)" clip-path="url(#_281985507131100clip-0)"/><line x1="197.41" y1="377.02" x2="402.59" y2="377.02" style="stroke-width: 1.0;stroke: rgb(0,0,0);stroke-opacity: 1.0;stroke-linecap: square;shape-rendering:crispEdges;" transform="matrix(1,0,0,1,0,0)" clip-path="url(#_281985507131100clip-0)"/><line x1="197.41" y1="398.5" x2="402.59" y2="398.5" style="stroke-width: 1.0;stroke: rgb(0,0,0);stroke-opacity: 1.0;stroke-linecap: square;shape-rendering:crispEdges;" transform="matrix(1,0,0,1,0,0)" clip-path="url(#_281985507131100clip-0)"/><line x1="197.41" y1="398.5" x2="197.41" y2="377.02" style="stroke-width: 1.0;stroke: rgb(0,0,0);stroke-opacity: 1.0;stroke-linecap: square;shape-rendering:crispEdges;" transform="matrix(1,0,0,1,0,0)" clip-path="url(#_281985507131100clip-0)"/><line x1="402.59" y1="398.5" x2="402.59" y2="377.02" style="stroke-width: 1.0;stroke: rgb(0,0,0);stroke-opacity: 1.0;stroke-linecap: square;shape-rendering:crispEdges;" transform="matrix(1,0,0,1,0,0)" clip-path="url(#_281985507131100clip-0)"/><g style="stroke-width: 1.0;stroke: rgb(255,85,85);stroke-opacity: 1.0;stroke-linecap: square;stroke-linejoin: bevel;shape-rendering:geometricPrecision;; fill: none" transform="matrix(1,0,0,1,0,0)" clip-path="url(#_281985507131100clip-0)"><path d="M 200.91 387.76 L 214.91 387.76"/></g><g style="fill: rgb(255,85,85); fill-opacity: 1.0; stroke: none" transform="matrix(1,0,0,1,0,0)" clip-path="url(#_281985507131100clip-0)"><path d="M 204.91 384.76 L 210.91 384.76 L 210.91 390.76 L 204.91 390.76 L 204.91 384.76 Z "/></g><g style="stroke-width: 1.0;stroke: rgb(255,85,85);stroke-opacity: 1.0;stroke-linecap: square;shape-rendering:geometricPrecision;; fill: none" transform="matrix(1,0,0,1,0,0)" clip-path="url(#_281985507131100clip-0)"><path d="M 204.91 384.76 L 210.91 384.76 L 210.91 390.76 L 204.91 390.76 L 204.91 384.76 Z "/></g><g transform="matrix(1,0,0,1,0,0)"><text x="218.91" y="392.52" style="fill: rgb(64,64,64); fill-opacity: 1.0; font-family: Tahoma; font-size: 12px;" clip-path="url(#_281985507131100clip-0)">Автор: name</text></g><g style="stroke-width: 1.0;stroke: rgb(85,85,255);stroke-opacity: 1.0;stroke-linecap: square;stroke-linejoin: bevel;shape-rendering:geometricPrecision;; fill: none" transform="matrix(1,0,0,1,0,0)" clip-path="url(#_281985507131100clip-0)"><path d="M 294.52 387.76 L 308.52 387.76"/></g><g style="fill: rgb(85,85,255); fill-opacity: 1.0; stroke: none" transform="matrix(1,0,0,1,0,0)" clip-path="url(#_281985507131100clip-0)"><path d="M 304.52 387.76 C 304.52 389.41 303.18 390.76 301.52 390.76 C 299.86 390.76 298.52 389.41 298.52 387.76 C 298.52 386.1 299.86 384.76 301.52 384.76 C 303.18 384.76 304.52 386.1 304.52 387.76 Z "/></g><g style="stroke-width: 1.0;stroke: rgb(85,85,255);stroke-opacity: 1.0;stroke-linecap: square;shape-rendering:geometricPrecision;; fill: none" transform="matrix(1,0,0,1,0,0)" clip-path="url(#_281985507131100clip-0)"><path d="M 304.52 387.76 C 304.52 389.41 303.18 390.76 301.52 390.76 C 299.86 390.76 298.52 389.41 298.52 387.76 C 298.52 386.1 299.86 384.76 301.52 384.76 C 303.18 384.76 304.52 386.1 304.52 387.76 Z "/></g><g transform="matrix(1,0,0,1,0,0)"><text x="312.52" y="392.52" style="fill: rgb(64,64,64); fill-opacity: 1.0; font-family: Tahoma; font-size: 12px;" clip-path="url(#_281985507131100clip-0)">Автор: no name</text></g><rect x="57" y="36" width="530" height="312" style="fill: rgb(0,255,255); fill-opacity: 1.0" transform="matrix(1,0,0,1,0,0)" clip-path="url(#_281985507131100clip-0)"/><line x1="57" y1="353" x2="587" y2="353" style="stroke-width: 0.5;stroke: rgb(128,128,128);stroke-opacity: 1.0;stroke-linecap: square;shape-rendering:crispEdges;" transform="matrix(1,0,0,1,0,0)" clip-path="url(#_281985507131100clip-0)"/><g transform="matrix(1,0,0,1,0,0)"><text x="37.36" y="369.01" style="fill: rgb(64,64,64); fill-opacity: 1.0; font-family: Tahoma; font-size: 12px;" clip-path="url(#_281985507131100clip-0)">10.03.2022</text></g><line x1="67.19" y1="355" x2="67.19" y2="353" style="stroke-width: 0.5;stroke: rgb(128,128,128);stroke-opacity: 1.0;stroke-linecap: square;shape-rendering:crispEdges;" transform="matrix(1,0,0,1,0,0)" clip-path="url(#_281985507131100clip-0)"/><g transform="matrix(1,0,0,1,0,0)"><text x="122.29" y="369.01" style="fill: rgb(64,64,64); fill-opacity: 1.0; font-family: Tahoma; font-size: 12px;" clip-path="url(#_281985507131100clip-0)">11.03.2022</text></g><line x1="152.13" y1="355" x2="152.13" y2="353" style="stroke-width: 0.5;stroke: rgb(128,128,128);stroke-opacity: 1.0;stroke-linecap: square;shape-rendering:crispEdges;" transform="matrix(1,0,0,1,0,0)" clip-path="url(#_281985507131100clip-0)"/><g transform="matrix(1,0,0,1,0,0)"><text x="207.23" y="369.01" style="fill: rgb(64,64,64); fill-opacity: 1.0; font-family: Tahoma; font-size: 12px;" clip-path="url(#_281985507131100clip-0)">12.03.2022</text></g><line x1="237.06" y1="355" x2="237.06" y2="353" style="stroke-width: 0.5;stroke: rgb(128,128,128);stroke-opacity: 1.0;stroke-linecap: square;shape-rendering:crispEdges;" transform="matrix(1,0,0,1,0,0)" clip-path="url(#_281985507131100clip-0)"/><g transform="matrix(1,0,0,1,0,0)"><text x="292.16" y="369.01" style="fill: rgb(64,64,64); fill-opacity: 1.0; font-family: Tahoma; font-size: 12px;" clip-path="url(#_281985507131100clip-0)">13.03.2022</text></g><line x1="322" y1="355" x2="322" y2="353" style="stroke-width: 0.5;stroke: rgb(128,128,128);stroke-opacity: 1.0;stroke-linecap: square;shape-rendering:crispEdges;" transform="matrix(1,0,0,1,0,0)" clip-path="url(#_281985507131100clip-0)"/><g transform="matrix(1,0,0,1,0,0)"><text x="377.1" y="369.01" style="fill: rgb(64,64,64); fill-opacity: 1.0; font-family: Tahoma; font-size: 12px;" clip-path="url(#_281985507131100clip-0)">14.03.2022</text></g><line x1="406.94" y1="355" x2="406.94" y2="353" style="stroke-width: 0.5;stroke: rgb(128,128,128);stroke-opacity: 1.0;stroke-linecap: square;shape-rendering:crispEdges;" transform="matrix(1,0,0,1,0,0)" clip-path="url(#_281985507131100clip-0)"/><g transform="matrix(1,0,0,1,0,0)"><text x="462.04" y="369.01" style="fill: rgb(64,64,64); fill-opacity: 1.0; font-family: Tahoma; font-size: 12px;" clip-path="url(#_281985507131100clip-0)">15.03.2022</text></g><line x1="491.87" y1="355" x2="491.87" y2="353" style="stroke-width: 0.5;stroke: rgb(128,128,128);stroke-opacity: 1.0;stroke-linecap: square;shape-rendering:crispEdges;" transform="matrix(1,0,0,1,0,0)" clip-path="url(#_281985507131100clip-0)"/><g transform="matrix(1,0,0,1,0,0)"><text x="546.97" y="369.01" style="fill: rgb(64,64,64); fill-opacity: 1.0; font-family: Tahoma; font-size: 12px;" clip-path="url(#_281985507131100clip-0)">16.03.2022</text></g><line x1="576.81" y1="355" x2="576.81" y2="353" style="stroke-width: 0.5;stroke: rgb(128,128,128);stroke-opacity: 1.0;stroke-linecap: square;shape-rendering:crispEdges;" transform="matrix(1,0,0,1,0,0)" clip-path="url(#_281985507131100clip-0)"/><line x1="52" y1="36" x2="52" y2="348" style="stroke-width: 0.5;stroke: rgb(128,128,128);stroke-opacity: 1.0;stroke-linecap: square;shape-rendering:crispEdges;" transform="matrix(1,0,0,1,0,0)" clip-path="url(#_281985507131100clip-0)"/><g transform="matrix(1,0,0,1,0,0)"><text x="39.45" y="319.12" style="fill: rgb(64,64,64); fill-opacity: 1.0; font-family: Tahoma; font-size: 12px;" clip-path="url(#_281985507131100clip-0)">5</text></g><line x1="50" y1="314.35" x2="52" y2="314.35" style="stroke-width: 0.5;stroke: rgb(128,128,128);stroke-opacity: 1.0;stroke-linecap: square;shape-rendering:crispEdges;" transform="matrix(1,0,0,1,0,0)" clip-path="url(#_281985507131100clip-0)"/><g transform="matrix(1,0,0,1,0,0)"><text x="32.9" y="279.06" style="fill: rgb(64,64,64); fill-opacity: 1.0; font-family: Tahoma; font-size: 12px;" clip-path="url(#_281985507131100clip-0)">10</text></g><line x1="50" y1="274.3" x2="52" y2="274.3" style="stroke-width: 0.5;stroke: rgb(128,128,128);stroke-opacity: 1.0;stroke-linecap: square;shape-rendering:crispEdges;" transform="matrix(1,0,0,1,0,0)" clip-path="url(#_281985507131100clip-0)"/><g transform="matrix(1,0,0,1,0,0)"><text x="32.9" y="239" style="fill: rgb(64,64,64); fill-opacity: 1.0; font-family: Tahoma; font-size: 12px;" clip-path="url(#_281985507131100clip-0)">15</text></g><line x1="50" y1="234.24" x2="52" y2="234.24" style="stroke-width: 0.5;stroke: rgb(128,128,128);stroke-opacity: 1.0;stroke-linecap: square;shape-rendering:crispEdges;" transform="matrix(1,0,0,1,0,0)" clip-path="url(#_281985507131100clip-0)"/><g transform="matrix(1,0,0,1,0,0)"><text x="32.9" y="198.95" style="fill: rgb(64,64,64); fill-opacity: 1.0; font-family: Tahoma; font-size: 12px;" clip-path="url(#_281985507131100clip-0)">20</text></g><line x1="50" y1="194.18" x2="52" y2="194.18" style="stroke-width: 0.5;stroke: rgb(128,128,128);stroke-opacity: 1.0;stroke-linecap: square;shape-rendering:crispEdges;" transform="matrix(1,0,0,1,0,0)" clip-path="url(#_281985507131100clip-0)"/><g transform="matrix(1,0,0,1,0,0)"><text x="32.9" y="158.89" style="fill: rgb(64,64,64); fill-opacity: 1.0; font-family: Tahoma; font-size: 12px;" clip-path="url(#_281985507131100clip-0)">25</text></g><line x1="50" y1="154.13" x2="52" y2="154.13" style="stroke-width: 0.5;stroke: rgb(128,128,128);stroke-opacity: 1.0;stroke-linecap: square;shape-rendering:crispEdges;" transform="matrix(1,0,0,1,0,0)" clip-path="url(#_281985507131100clip-0)"/><g transform="matrix(1,0,0,1,0,0)"><text x="32.9" y="118.84" style="fill: rgb(64,64,64); fill-opacity: 1.0; font-family: Tahoma; font-size: 12px;" clip-path="url(#_281985507131100clip-0)">30</text></g><line x1="50" y1="114.07" x2="52" y2="114.07" style="stroke-width: 0.5;stroke: rgb(128,128,128);stroke-opacity: 1.0;stroke-linecap: square;shape-rendering:crispEdges;" transform="matrix(1,0,0,1,0,0)" clip-path="url(#_281985507131100clip-0)"/><g transform="matrix(1,0,0,1,0,0)"><text x="32.9" y="78.78" style="fill: rgb(64,64,64); fill-opacity: 1.0; font-family: Tahoma; font-size: 12px;" clip-path="url(#_281985507131100clip-0)">35</text></g><line x1="50" y1="74.02" x2="52" y2="74.02" style="stroke-width: 0.5;stroke: rgb(128,128,128);stroke-opacity: 1.0;stroke-linecap: square;shape-rendering:crispEdges;" transform="matrix(1,0,0,1,0,0)" clip-path="url(#_281985507131100clip-0)"/><g transform="matrix(0,-1,1,0,-172.550781,211.449219)"><text x="-18.73" y="197.56" style="fill: rgb(64,64,64); fill-opacity: 1.0; font-family: Tahoma; font-size: 14px; font-weight: bold;" clip-path="url(#_281985507131100clip-1)">Стоимость</text></g><line x1="67.19" y1="36" x2="67.19" y2="348" style="stroke-width: 0.5;stroke: rgb(192,192,192);stroke-opacity: 1.0;stroke-linejoin: bevel;stroke-dasharray: 2.0, 2.0;shape-rendering:crispEdges;" transform="matrix(1,0,0,1,0,0)" clip-path="url(#_281985507131100clip-2)"/><line x1="152.13" y1="36" x2="152.13" y2="348" style="stroke-width: 0.5;stroke: rgb(192,192,192);stroke-opacity: 1.0;stroke-linejoin: bevel;stroke-dasharray: 2.0, 2.0;shape-rendering:crispEdges;" transform="matrix(1,0,0,1,0,0)" clip-path="url(#_281985507131100clip-2)"/><line x1="237.06" y1="36" x2="237.06" y2="348" style="stroke-width: 0.5;stroke: rgb(192,192,192);stroke-opacity: 1.0;stroke-linejoin: bevel;stroke-dasharray: 2.0, 2.0;shape-rendering:crispEdges;" transform="matrix(1,0,0,1,0,0)" clip-path="url(#_281985507131100clip-2)"/><line x1="322" y1="36" x2="322" y2="348" style="stroke-width: 0.5;stroke: rgb(192,192,192);stroke-opacity: 1.0;stroke-linejoin: bevel;stroke-dasharray: 2.0, 2.0;shape-rendering:crispEdges;" transform="matrix(1,0,0,1,0,0)" clip-path="url(#_281985507131100clip-2)"/><line x1="406.94" y1="36" x2="406.94" y2="348" style="stroke-width: 0.5;stroke: rgb(192,192,192);stroke-opacity: 1.0;stroke-linejoin: bevel;stroke-dasharray: 2.0, 2.0;shape-rendering:crispEdges;" transform="matrix(1,0,0,1,0,0)" clip-path="url(#_281985507131100clip-2)"/><line x1="491.87" y1="36" x2="491.87" y2="348" style="stroke-width: 0.5;stroke: rgb(192,192,192);stroke-opacity: 1.0;stroke-linejoin: bevel;stroke-dasharray: 2.0, 2.0;shape-rendering:crispEdges;" transform="matrix(1,0,0,1,0,0)" clip-path="url(#_281985507131100clip-2)"/><line x1="576.81" y1="36" x2="576.81" y2="348" style="stroke-width: 0.5;stroke: rgb(192,192,192);stroke-opacity: 1.0;stroke-linejoin: bevel;stroke-dasharray: 2.0, 2.0;shape-rendering:crispEdges;" transform="matrix(1,0,0,1,0,0)" clip-path="url(#_281985507131100clip-2)"/><line x1="57" y1="314.35" x2="587" y2="314.35" style="stroke-width: 0.5;stroke: rgb(192,192,192);stroke-opacity: 1.0;stroke-linejoin: bevel;stroke-dasharray: 2.0, 2.0;shape-rendering:crispEdges;" transform="matrix(1,0,0,1,0,0)" clip-path="url(#_281985507131100clip-2)"/><line x1="57" y1="274.3" x2="587" y2="274.3" style="stroke-width: 0.5;stroke: rgb(192,192,192);stroke-opacity: 1.0;stroke-linejoin: bevel;stroke-dasharray: 2.0, 2.0;shape-rendering:crispEdges;" transform="matrix(1,0,0,1,0,0)" clip-path="url(#_281985507131100clip-2)"/><line x1="57" y1="234.24" x2="587" y2="234.24" style="stroke-width: 0.5;stroke: rgb(192,192,192);stroke-opacity: 1.0;stroke-linejoin: bevel;stroke-dasharray: 2.0, 2.0;shape-rendering:crispEdges;" transform="matrix(1,0,0,1,0,0)" clip-path="url(#_281985507131100clip-2)"/><line x1="57" y1="194.18" x2="587" y2="194.18" style="stroke-width: 0.5;stroke: rgb(192,192,192);stroke-opacity: 1.0;stroke-linejoin: bevel;stroke-dasharray: 2.0, 2.0;shape-rendering:crispEdges;" transform="matrix(1,0,0,1,0,0)" clip-path="url(#_281985507131100clip-2)"/><line x1="57" y1="154.13" x2="587" y2="154.13" style="stroke-width: 0.5;stroke: rgb(192,192,192);stroke-opacity: 1.0;stroke-linejoin: bevel;stroke-dasharray: 2.0, 2.0;shape-rendering:crispEdges;" transform="matrix(1,0,0,1,0,0)" clip-path="url(#_281985507131100clip-2)"/><line x1="57" y1="114.07" x2="587" y2="114.07" style="stroke-width: 0.5;stroke: rgb(192,192,192);stroke-opacity: 1.0;stroke-linejoin: bevel;stroke-dasharray: 2.0, 2.0;shape-rendering:crispEdges;" transform="matrix(1,0,0,1,0,0)" clip-path="url(#_281985507131100clip-2)"/><line x1="57" y1="74.02" x2="587" y2="74.02" style="stroke-width: 0.5;stroke: rgb(192,192,192);stroke-opacity: 1.0;stroke-linejoin: bevel;stroke-dasharray: 2.0, 2.0;shape-rendering:crispEdges;" transform="matrix(1,0,0,1,0,0)" clip-path="url(#_281985507131100clip-2)"/><g style="stroke-width: 1.0;stroke: rgb(85,85,255);stroke-opacity: 1.0;stroke-linecap: square;stroke-linejoin: bevel;shape-rendering:geometricPrecision;; fill: none" transform="matrix(1,0,0,1,0,0)" clip-path="url(#_281985507131100clip-2)"><path d="M 67.19 51.23 L 152.13 51.58 L 237.06 50.18 L 406.94 231.5 L 491.87 231.64 L 576.81 232.53"/></g><g style="stroke-width: 1.0;stroke: rgb(255,85,85);stroke-opacity: 1.0;stroke-linecap: square;stroke-linejoin: bevel;shape-rendering:geometricPrecision;; fill: none" transform="matrix(1,0,0,1,0,0)" clip-path="url(#_281985507131100clip-2)"><path d="M 67.19 333.79 L 152.13 333.82 L 237.06 333.72 L 406.94 328.86 L 491.87 328.88 L 576.81 329.07"/></g><g style="fill: rgb(85,85,255); fill-opacity: 1.0; stroke: none" transform="matrix(1,0,0,1,0,0)" clip-path="url(#_281985507131100clip-2)"><path d="M 70.19 51.23 C 70.19 52.89 68.85 54.23 67.19 54.23 C 65.54 54.23 64.19 52.89 64.19 51.23 C 64.19 49.58 65.54 48.23 67.19 48.23 C 68.85 48.23 70.19 49.58 70.19 51.23 Z "/></g><g style="stroke-width: 1.0;stroke: rgb(85,85,255);stroke-opacity: 1.0;stroke-linecap: square;shape-rendering:geometricPrecision;; fill: none" transform="matrix(1,0,0,1,0,0)" clip-path="url(#_281985507131100clip-2)"><path d="M 70.19 51.23 C 70.19 52.89 68.85 54.23 67.19 54.23 C 65.54 54.23 64.19 52.89 64.19 51.23 C 64.19 49.58 65.54 48.23 67.19 48.23 C 68.85 48.23 70.19 49.58 70.19 51.23 Z "/></g><g style="fill: rgb(85,85,255); fill-opacity: 1.0; stroke: none" transform="matrix(1,0,0,1,0,0)" clip-path="url(#_281985507131100clip-2)"><path d="M 155.13 51.58 C 155.13 53.24 153.79 54.58 152.13 54.58 C 150.47 54.58 149.13 53.24 149.13 51.58 C 149.13 49.93 150.47 48.58 152.13 48.58 C 153.79 48.58 155.13 49.93 155.13 51.58 Z "/></g><g style="stroke-width: 1.0;stroke: rgb(85,85,255);stroke-opacity: 1.0;stroke-linecap: square;shape-rendering:geometricPrecision;; fill: none" transform="matrix(1,0,0,1,0,0)" clip-path="url(#_281985507131100clip-2)"><path d="M 155.13 51.58 C 155.13 53.24 153.79 54.58 152.13 54.58 C 150.47 54.58 149.13 53.24 149.13 51.58 C 149.13 49.93 150.47 48.58 152.13 48.58 C 153.79 48.58 155.13 49.93 155.13 51.58 Z "/></g><g style="fill: rgb(85,85,255); fill-opacity: 1.0; stroke: none" transform="matrix(1,0,0,1,0,0)" clip-path="url(#_281985507131100clip-2)"><path d="M 240.06 50.18 C 240.06 51.84 238.72 53.18 237.06 53.18 C 235.41 53.18 234.06 51.84 234.06 50.18 C 234.06 48.52 235.41 47.18 237.06 47.18 C 238.72 47.18 240.06 48.52 240.06 50.18 Z "/></g><g style="stroke-width: 1.0;stroke: rgb(85,85,255);stroke-opacity: 1.0;stroke-linecap: square;shape-rendering:geometricPrecision;; fill: none" transform="matrix(1,0,0,1,0,0)" clip-path="url(#_281985507131100clip-2)"><path d="M 240.06 50.18 C 240.06 51.84 238.72 53.18 237.06 53.18 C 235.41 53.18 234.06 51.84 234.06 50.18 C 234.06 48.52 235.41 47.18 237.06 47.18 C 238.72 47.18 240.06 48.52 240.06 50.18 Z "/></g><g style="fill: rgb(85,85,255); fill-opacity: 1.0; stroke: none" transform="matrix(1,0,0,1,0,0)" clip-path="url(#_281985507131100clip-2)"><path d="M 409.94 231.5 C 409.94 233.16 408.59 234.5 406.94 234.5 C 405.28 234.5 403.94 233.16 403.94 231.5 C 403.94 229.85 405.28 228.5 406.94 228.5 C 408.59 228.5 409.94 229.85 409.94 231.5 Z "/></g><g style="stroke-width: 1.0;stroke: rgb(85,85,255);stroke-opacity: 1.0;stroke-linecap: square;shape-rendering:geometricPrecision;; fill: none" transform="matrix(1,0,0,1,0,0)" clip-path="url(#_281985507131100clip-2)"><path d="M 409.94 231.5 C 409.94 233.16 408.59 234.5 406.94 234.5 C 405.28 234.5 403.94 233.16 403.94 231.5 C 403.94 229.85 405.28 228.5 406.94 228.5 C 408.59 228.5 409.94 229.85 409.94 231.5 Z "/></g><g style="fill: rgb(85,85,255); fill-opacity: 1.0; stroke: none" transform="matrix(1,0,0,1,0,0)" clip-path="url(#_281985507131100clip-2)"><path d="M 494.87 231.64 C 494.87 233.29 493.53 234.64 491.87 234.64 C 490.21 234.64 488.87 233.29 488.87 231.64 C 488.87 229.98 490.21 228.64 491.87 228.64 C 493.53 228.64 494.87 229.98 494.87 231.64 Z "/></g><g style="stroke-width: 1.0;stroke: rgb(85,85,255);stroke-opacity: 1.0;stroke-linecap: square;shape-rendering:geometricPrecision;; fill: none" transform="matrix(1,0,0,1,0,0)" clip-path="url(#_281985507131100clip-2)"><path d="M 494.87 231.64 C 494.87 233.29 493.53 234.64 491.87 234.64 C 490.21 234.64 488.87 233.29 488.87 231.64 C 488.87 229.98 490.21 228.64 491.87 228.64 C 493.53 228.64 494.87 229.98 494.87 231.64 Z "/></g><g style="fill: rgb(85,85,255); fill-opacity: 1.0; stroke: none" transform="matrix(1,0,0,1,0,0)" clip-path="url(#_281985507131100clip-2)"><path d="M 579.81 232.53 C 579.81 234.19 578.46 235.53 576.81 235.53 C 575.15 235.53 573.81 234.19 573.81 232.53 C 573.81 230.88 575.15 229.53 576.81 229.53 C 578.46 229.53 579.81 230.88 579.81 232.53 Z "/></g><g style="stroke-width: 1.0;stroke: rgb(85,85,255);stroke-opacity: 1.0;stroke-linecap: square;shape-rendering:geometricPrecision;; fill: none" transform="matrix(1,0,0,1,0,0)" clip-path="url(#_281985507131100clip-2)"><path d="M 579.81 232.53 C 579.81 234.19 578.46 235.53 576.81 235.53 C 575.15 235.53 573.81 234.19 573.81 232.53 C 573.81 230.88 575.15 229.53 576.81 229.53 C 578.46 229.53 579.81 230.88 579.81 232.53 Z "/></g><g style="fill: rgb(255,85,85); fill-opacity: 1.0; stroke: none" transform="matrix(1,0,0,1,0,0)" clip-path="url(#_281985507131100clip-2)"><path d="M 64.19 330.79 L 70.19 330.79 L 70.19 336.79 L 64.19 336.79 L 64.19 330.79 Z "/></g><g style="stroke-width: 1.0;stroke: rgb(255,85,85);stroke-opacity: 1.0;stroke-linecap: square;shape-rendering:geometricPrecision;; fill: none" transform="matrix(1,0,0,1,0,0)" clip-path="url(#_281985507131100clip-2)"><path d="M 64.19 330.79 L 70.19 330.79 L 70.19 336.79 L 64.19 336.79 L 64.19 330.79 Z "/></g><g style="fill: rgb(255,85,85); fill-opacity: 1.0; stroke: none" transform="matrix(1,0,0,1,0,0)" clip-path="url(#_281985507131100clip-2)"><path d="M 149.13 330.82 L 155.13 330.82 L 155.13 336.82 L 149.13 336.82 L 149.13 330.82 Z "/></g><g style="stroke-width: 1.0;stroke: rgb(255,85,85);stroke-opacity: 1.0;stroke-linecap: square;shape-rendering:geometricPrecision;; fill: none" transform="matrix(1,0,0,1,0,0)" clip-path="url(#_281985507131100clip-2)"><path d="M 149.13 330.82 L 155.13 330.82 L 155.13 336.82 L 149.13 336.82 L 149.13 330.82 Z "/></g><g style="fill: rgb(255,85,85); fill-opacity: 1.0; stroke: none" transform="matrix(1,0,0,1,0,0)" clip-path="url(#_281985507131100clip-2)"><path d="M 234.06 330.72 L 240.06 330.72 L 240.06 336.72 L 234.06 336.72 L 234.06 330.72 Z "/></g><g style="stroke-width: 1.0;stroke: rgb(255,85,85);stroke-opacity: 1.0;stroke-linecap: square;shape-rendering:geometricPrecision;; fill: none" transform="matrix(1,0,0,1,0,0)" clip-path="url(#_281985507131100clip-2)"><path d="M 234.06 330.72 L 240.06 330.72 L 240.06 336.72 L 234.06 336.72 L 234.06 330.72 Z "/></g><g style="fill: rgb(255,85,85); fill-opacity: 1.0; stroke: none" transform="matrix(1,0,0,1,0,0)" clip-path="url(#_281985507131100clip-2)"><path d="M 403.94 325.86 L 409.94 325.86 L 409.94 331.86 L 403.94 331.86 L 403.94 325.86 Z "/></g><g style="stroke-width: 1.0;stroke: rgb(255,85,85);stroke-opacity: 1.0;stroke-linecap: square;shape-rendering:geometricPrecision;; fill: none" transform="matrix(1,0,0,1,0,0)" clip-path="url(#_281985507131100clip-2)"><path d="M 403.94 325.86 L 409.94 325.86 L 409.94 331.86 L 403.94 331.86 L 403.94 325.86 Z "/></g><g style="fill: rgb(255,85,85); fill-opacity: 1.0; stroke: none" transform="matrix(1,0,0,1,0,0)" clip-path="url(#_281985507131100clip-2)"><path d="M 488.87 325.88 L 494.87 325.88 L 494.87 331.88 L 488.87 331.88 L 488.87 325.88 Z "/></g><g style="stroke-width: 1.0;stroke: rgb(255,85,85);stroke-opacity: 1.0;stroke-linecap: square;shape-rendering:geometricPrecision;; fill: none" transform="matrix(1,0,0,1,0,0)" clip-path="url(#_281985507131100clip-2)"><path d="M 488.87 325.88 L 494.87 325.88 L 494.87 331.88 L 488.87 331.88 L 488.87 325.88 Z "/></g><g style="fill: rgb(255,85,85); fill-opacity: 1.0; stroke: none" transform="matrix(1,0,0,1,0,0)" clip-path="url(#_281985507131100clip-2)"><path d="M 573.81 326.07 L 579.81 326.07 L 579.81 332.07 L 573.81 332.07 L 573.81 326.07 Z "/></g><g style="stroke-width: 1.0;stroke: rgb(255,85,85);stroke-opacity: 1.0;stroke-linecap: square;shape-rendering:geometricPrecision;; fill: none" transform="matrix(1,0,0,1,0,0)" clip-path="url(#_281985507131100clip-2)"><path d="M 573.81 326.07 L 579.81 326.07 L 579.81 332.07 L 573.81 332.07 L 573.81 326.07 Z "/></g><rect x="57" y="36" width="530" height="312" style="stroke-width: 0.5;stroke: rgb(0,0,0);stroke-opacity: 1.0;stroke-linecap: round;stroke-linejoin: round;shape-rendering:crispEdges;; fill: none" transform="matrix(1,0,0,1,0,0)" clip-path="url(#_281985507131100clip-0)"/></svg>
